<svg width="727" height="610" viewBox="0 0 727 610" fill="none" xmlns="http://www.w3.org/2000/svg">
<path d="M376.135 243.625L360.243 233.34C360.243 233.456 360.127 233.689 360.011 233.805L304.679 319.206L376.135 365.502C380.363 368.248 385.171 371.327 390.531 374.77L445.412 290.051C424.378 275.307 401.281 259.749 376.135 243.639V243.625Z" fill="white"/>
<path d="M390.546 374.756L304.345 507.833L238.264 609.926H116.386L182.468 507.833L304.679 319.192L376.135 365.488C380.363 368.233 385.171 371.313 390.531 374.756H390.546Z" fill="white"/>
<path d="M726.328 201.658V609.926H624.235V201.658C624.235 180.274 622.056 163.133 617.713 150.205C613.253 137.29 604 130.884 589.705 130.884C578.157 130.884 566.957 134.879 555.975 142.767C544.993 150.771 534.824 160.257 525.455 171.123C516.201 182.206 507.848 193.421 500.411 204.97C492.988 216.518 486.799 226.12 481.889 233.776L445.413 290.022C424.379 275.278 401.282 259.72 376.136 243.61L360.244 233.325C381.162 201.193 400.599 172.27 418.888 146.892C437.293 121.398 455.931 99.8991 474.917 82.2929C493.787 64.6867 514.124 51.424 535.739 42.3885C557.457 33.353 582.268 28.7771 610.275 28.7771C644.805 28.7771 672.812 43.8702 694.195 74.0563C715.694 104.243 726.328 146.762 726.328 201.643V201.658Z" fill="white"/>
<path d="M694.15 74.0272C672.767 43.8411 644.76 28.748 610.231 28.748C582.223 28.748 557.412 33.3239 535.695 42.3594C514.094 51.3949 493.742 64.6576 474.872 82.2638C455.901 99.87 437.263 121.369 418.858 146.863C400.569 172.241 381.132 201.164 360.214 233.296C360.214 233.413 360.098 233.645 359.982 233.747L304.65 319.148L182.438 507.79L116.357 609.882H238.235L304.316 507.79L390.517 374.712L445.398 289.993L481.874 233.747C486.784 226.091 492.958 216.489 500.395 204.94C507.833 193.392 516.171 182.192 525.439 171.094C534.809 160.228 544.992 150.742 555.959 142.738C566.941 134.85 578.141 130.855 589.69 130.855C603.984 130.855 613.237 137.261 617.697 150.175C622.041 163.09 624.22 180.245 624.22 201.628V609.897H726.312V201.628C726.312 146.747 715.679 104.213 694.179 74.0418L694.15 74.0272Z" fill="white"/>
<path d="M567.523 419.338C558.488 397.722 545.109 377.385 527.619 358.515C510.012 339.543 488.513 320.906 463.019 302.501C457.296 298.39 451.47 294.264 445.413 290.037C424.378 275.293 401.281 259.735 376.136 243.625L360.244 233.34L0 0V121.762L304.68 319.206L376.136 365.502C380.363 368.248 385.171 371.328 390.532 374.77C394.875 377.632 399.683 380.712 404.942 384.024C416.491 391.461 427.69 399.8 438.673 409.067C449.655 418.437 459.141 428.62 467.145 439.588C475.033 450.57 479.042 461.77 479.042 473.318C479.042 487.613 472.636 496.866 459.722 501.326C446.807 505.669 429.652 507.848 408.269 507.848H304.346L238.264 609.941H408.269C463.15 609.941 505.684 599.307 535.855 577.808C566.041 556.425 581.134 528.418 581.134 493.888C581.134 465.881 576.559 441.069 567.523 419.352V419.338Z" fill="#36BAED"/>
</svg>
