<svg width="123" height="21" viewBox="0 0 123 21" fill="none" xmlns="http://www.w3.org/2000/svg">
<path d="M9.41537 2.03405C9.62339 1.39382 10.5292 1.39382 10.7372 2.03405L12.1825 6.48236C12.2755 6.76868 12.5424 6.96253 12.8434 6.96253H17.5206C18.1938 6.96253 18.4737 7.82396 17.9291 8.21965L14.1452 10.9688C13.9016 11.1458 13.7997 11.4595 13.8927 11.7458L15.3381 16.1941C15.5461 16.8343 14.8133 17.3667 14.2687 16.971L10.4847 14.2218C10.2412 14.0449 9.91137 14.0449 9.66781 14.2218L5.88385 16.971C5.33924 17.3667 4.60647 16.8343 4.81449 16.1941L6.25983 11.7458C6.35286 11.4595 6.25095 11.1458 6.00739 10.9688L2.22343 8.21964C1.67882 7.82396 1.95872 6.96253 2.6319 6.96253H7.30912C7.61018 6.96253 7.87699 6.76868 7.97003 6.48236L9.41537 2.03405Z" fill="#FFD900"/>
<path d="M35.1273 2.03405C35.3353 1.39382 36.2411 1.39382 36.4491 2.03405L37.8944 6.48236C37.9875 6.76868 38.2543 6.96253 38.5553 6.96253H43.2326C43.9057 6.96253 44.1856 7.82396 43.641 8.21965L39.8571 10.9688C39.6135 11.1458 39.5116 11.4595 39.6046 11.7458L41.05 16.1941C41.258 16.8343 40.5252 17.3667 39.9806 16.971L36.1966 14.2218C35.9531 14.0449 35.6233 14.0449 35.3797 14.2218L31.5958 16.971C31.0512 17.3667 30.3184 16.8343 30.5264 16.1941L31.9717 11.7458C32.0648 11.4595 31.9629 11.1458 31.7193 10.9688L27.9353 8.21964C27.3907 7.82396 27.6706 6.96253 28.3438 6.96253H33.021C33.3221 6.96253 33.5889 6.76868 33.6819 6.48236L35.1273 2.03405Z" fill="#FFD900"/>
<path d="M60.8391 2.03405C61.0471 1.39382 61.9529 1.39382 62.1609 2.03405L63.6062 6.48236C63.6993 6.76868 63.9661 6.96253 64.2671 6.96253H68.9443C69.6175 6.96253 69.8974 7.82396 69.3528 8.21965L65.5689 10.9688C65.3253 11.1458 65.2234 11.4595 65.3164 11.7458L66.7618 16.1941C66.9698 16.8343 66.237 17.3667 65.6924 16.971L61.9084 14.2218C61.6649 14.0449 61.3351 14.0449 61.0915 14.2218L57.3076 16.971C56.7629 17.3667 56.0302 16.8343 56.2382 16.1941L57.6835 11.7458C57.7766 11.4595 57.6747 11.1458 57.4311 10.9688L53.6471 8.21964C53.1025 7.82396 53.3824 6.96253 54.0556 6.96253H58.7328C59.0339 6.96253 59.3007 6.76868 59.3937 6.48236L60.8391 2.03405Z" fill="#FFD900"/>
<path d="M86.551 2.03405C86.759 1.39382 87.6648 1.39382 87.8728 2.03405L89.3181 6.48236C89.4112 6.76868 89.678 6.96253 89.979 6.96253H94.6563C95.3294 6.96253 95.6093 7.82396 95.0647 8.21965L91.2808 10.9688C91.0372 11.1458 90.9353 11.4595 91.0283 11.7458L92.4737 16.1941C92.6817 16.8343 91.9489 17.3667 91.4043 16.971L87.6204 14.2218C87.3768 14.0449 87.047 14.0449 86.8034 14.2218L83.0195 16.971C82.4749 17.3667 81.7421 16.8343 81.9501 16.1941L83.3955 11.7458C83.4885 11.4595 83.3866 11.1458 83.143 10.9688L79.3591 8.21964C78.8144 7.82396 79.0943 6.96253 79.7675 6.96253H84.4447C84.7458 6.96253 85.0126 6.76868 85.1056 6.48236L86.551 2.03405Z" fill="#FFD900"/>
<path d="M112.263 2.03405C112.471 1.39382 113.377 1.39382 113.585 2.03405L115.03 6.48236C115.123 6.76868 115.39 6.96253 115.691 6.96253H120.368C121.041 6.96253 121.321 7.82396 120.777 8.21965L116.993 10.9688C116.749 11.1458 116.647 11.4595 116.74 11.7458L118.185 16.1941C118.393 16.8343 117.661 17.3667 117.116 16.971L113.332 14.2218C113.089 14.0449 112.759 14.0449 112.515 14.2218L108.731 16.971C108.187 17.3667 107.454 16.8343 107.662 16.1941L109.107 11.7458C109.2 11.4595 109.098 11.1458 108.855 10.9688L105.071 8.21964C104.526 7.82396 104.806 6.96253 105.479 6.96253H110.157C110.458 6.96253 110.724 6.76868 110.817 6.48236L112.263 2.03405Z" fill="#FFD900"/>
</svg>
